<svg xmlns="http://www.w3.org/2000/svg" viewBox="0 0 350 79.2">
  <title>fylgia-grey-logo</title>
  <g id="Lager_2" data-name="Lager 2">
    <g id="Lager_1-2" data-name="Lager 1">
      <path d="M33.94,76.2a2.49,2.49,0,0,1-2.48,2.48h-29A2.49,2.49,0,0,1,0,76.2V40.82a2.49,2.49,0,0,1,2.49-2.48h29a2.49,2.49,0,0,1,2.48,2.48Z"/>
      <path d="M76.69,76.2a2.49,2.49,0,0,1-2.49,2.48h-29a2.49,2.49,0,0,1-2.49-2.48V40.82a2.49,2.49,0,0,1,2.49-2.48h29a2.49,2.49,0,0,1,2.49,2.48Z" fill="#212121"/>
      <path d="M.91,0A.72.72,0,0,0,.12.79v29.6s0,1,.86,1.05l18.86,0A15.74,15.74,0,1,0,19.84,0H1" fill="#303030"/>
      <path d="M75.85,0a.72.72,0,0,1,.79.79v29.6s0,1-.85,1.05l-18.86,0A15.74,15.74,0,1,1,56.93,0H75.79" fill="#545454"/>
      <path d="M104.75,32.87V46.59h22.81v9.09H104.75V78.57H95.58V23.7h36.6v9.17Z"/>
      <path d="M187.4,23.7,166.79,52.62V78.57h-9.18V52.62L137,23.7h11.21l14,19.6,13.95-19.6Z"/>
      <path d="M222.77,69.4v9.17H193.3V23.7h9.17V69.4Z"/>
      <path d="M289.38,23.7h9.16V78.57h-9.16Z"/>
      <path d="M337.69,72.22H318.41l-2.35,6.35h-9.87l21.86-56.44L350,78.57h-9.88Zm-16.3-7.92h13.33l-6.67-19Z"/>
      <g>
        <path d="M107.12,11.78h-1.46l-1.43-3.37H98.46L97,11.78H95.58L100.52.14h1.65Zm-3.4-4.59-2.37-5.68L99,7.19Z"/>
        <path d="M121,.14a5.1,5.1,0,0,1,2,.4,4.83,4.83,0,0,1,1.71,1.15A5.85,5.85,0,0,1,126.33,6a5.87,5.87,0,0,1-1.63,4.28A5,5,0,0,1,123,11.39a5.28,5.28,0,0,1-2,.39h-4.91V.14Zm0,10.39a3.7,3.7,0,0,0,3-1.35A4.79,4.79,0,0,0,125,6a4.81,4.81,0,0,0-1.11-3.22,3.7,3.7,0,0,0-3-1.35H117.4v9.14Z"/>
        <path d="M145.05.14l-4.72,11.64h-1.51L134.11.14h1.44l4,10.15,4-10.15Z"/>
        <path d="M158.7,0A5.64,5.64,0,0,1,163,1.74,5.79,5.79,0,0,1,164.61,6,5.78,5.78,0,0,1,163,10.18a6.11,6.11,0,0,1-8.54,0A5.78,5.78,0,0,1,152.79,6a5.79,5.79,0,0,1,1.64-4.22A5.66,5.66,0,0,1,158.7,0Zm0,10.64a4.44,4.44,0,0,0,3.36-1.35A4.66,4.66,0,0,0,163.29,6a4.64,4.64,0,0,0-1.23-3.32,4.83,4.83,0,0,0-6.72,0A4.64,4.64,0,0,0,154.11,6a4.66,4.66,0,0,0,1.23,3.33A4.44,4.44,0,0,0,158.7,10.64Z"/>
        <path d="M179,4.82l5.24,7h-1.65L178,5.72,175.57,8v3.81h-1.32V.14h1.32V6.21L182.05.14h1.86Z"/>
        <path d="M203.94,11.78h-1.46l-1.42-3.37h-5.77l-1.43,3.37H192.4L197.34.14H199Zm-3.4-4.59-2.37-5.68-2.38,5.68Z"/>
        <path d="M219.71,1.41h-4.06V11.78h-1.32V1.41h-4.06V.14h9.44Z"/>
        <path d="M230.08,1.41v4h6.32V6.74h-6.32v5h-1.32V.14h8.41V1.41Z"/>
        <path d="M247.63,11.78h-1.32V.14h1.32Z"/>
        <path d="M259.27,11.78H258V.14h5.58a4.05,4.05,0,0,1,2.85,1,3.4,3.4,0,0,1,1.07,2.65,2.93,2.93,0,0,1-1.81,3,4.73,4.73,0,0,1-1,.34l3.06,4.69h-1.57l-2.81-4.46h-4.05Zm0-5.71h4a2.77,2.77,0,0,0,2.57-1.16,2.25,2.25,0,0,0,.26-1.13A2.16,2.16,0,0,0,265.37,2a3,3,0,0,0-2-.64h-4.1Z"/>
        <path d="M288.52.14V11.78H287.2V2.15l-4.31,5.54-4.38-5.54v9.63h-1.32V.14h1.54l4.16,5.52L287,.14Z"/>
        <path d="M309,11.78h-1.46l-1.42-3.37h-5.77l-1.43,3.37h-1.46L302.42.14h1.65Zm-3.39-4.59-2.38-5.68-2.37,5.68Z"/>
        <path d="M328,.14V11.78h-1.53L319.29,2v9.83H318V.14h1.53l7.19,9.8V.14Z"/>
      </g>
      <path d="M277.75,47.22V78.65h-8l-.47-5.18c-4.47,4.16-9.1,5.73-15.6,5.73C239,79.2,227.43,68.93,227.43,51c0-16.3,12.31-28.22,27.43-28.22a27,27,0,0,1,19.36,8.07l-6.42,6.43a18.35,18.35,0,0,0-12.94-5.33c-10.11,0-18.26,7.06-18.26,19,0,13.4,8.15,19.05,18.26,19.05a18.1,18.1,0,0,0,13.72-6.2V55.92h-9.17v-8.7Z"/>
    </g>
  </g>
</svg>
