<svg width="350" height="80" viewBox="0 0 350 80" fill="none" xmlns="http://www.w3.org/2000/svg">
<path d="M33.94 76.2C33.9374 76.8569 33.6752 77.4862 33.2107 77.9507C32.7462 78.4152 32.1169 78.6774 31.46 78.68H2.46C1.80655 78.6721 1.18239 78.4077 0.722171 77.9437C0.261954 77.4798 0.00257711 76.8535 0 76.2L0 40.82C0.00264522 40.1613 0.266151 39.5306 0.73283 39.0658C1.19951 38.601 1.83134 38.34 2.49 38.34H31.49C32.1469 38.3426 32.7762 38.6048 33.2407 39.0693C33.7052 39.5338 33.9674 40.1631 33.97 40.82L33.94 76.2Z" fill="white"/>
<path d="M76.69 76.2C76.6874 76.8587 76.4238 77.4894 75.9572 77.9542C75.4905 78.419 74.8587 78.68 74.2 78.68H45.2C44.5413 78.68 43.9095 78.419 43.4428 77.9542C42.9761 77.4894 42.7126 76.8587 42.71 76.2V40.82C42.7126 40.1613 42.9761 39.5306 43.4428 39.0658C43.9095 38.601 44.5413 38.34 45.2 38.34H74.2C74.8587 38.34 75.4905 38.601 75.9572 39.0658C76.4238 39.5306 76.6874 40.1613 76.69 40.82V76.2Z" fill="white"/>
<path d="M0.91 0C0.803556 -0.010967 0.696005 0.00193026 0.595172 0.0377537C0.494338 0.0735771 0.402758 0.131426 0.327092 0.207092C0.251426 0.282758 0.193577 0.374338 0.157754 0.475172C0.12193 0.576005 0.109033 0.683556 0.12 0.79V30.39C0.12 30.39 0.12 31.39 0.98 31.44H19.84C21.9711 31.5475 24.1018 31.2206 26.1026 30.4792C28.1035 29.7377 29.9326 28.5972 31.479 27.1269C33.0254 25.6565 34.2567 23.8872 35.098 21.9262C35.9394 19.9653 36.3732 17.8538 36.3732 15.72C36.3732 13.5862 35.9394 11.4747 35.098 9.51376C34.2567 7.55283 33.0254 5.78345 31.479 4.31314C29.9326 2.84283 28.1035 1.70229 26.1026 0.960824C24.1018 0.219363 21.9711 -0.107533 19.84 0H1" fill="white"/>
<path d="M75.85 0C75.9564 -0.010967 76.064 0.00193026 76.1648 0.0377537C76.2657 0.0735771 76.3572 0.131426 76.4329 0.207092C76.5086 0.282758 76.5664 0.374338 76.6022 0.475172C76.6381 0.576005 76.651 0.683556 76.64 0.79V30.39C76.64 30.39 76.64 31.39 75.79 31.44H56.93C54.7989 31.5475 52.6682 31.2206 50.6674 30.4792C48.6665 29.7377 46.8374 28.5972 45.291 27.1269C43.7446 25.6565 42.5133 23.8872 41.672 21.9262C40.8306 19.9653 40.3968 17.8538 40.3968 15.72C40.3968 13.5862 40.8306 11.4747 41.672 9.51376C42.5133 7.55283 43.7446 5.78345 45.291 4.31314C46.8374 2.84283 48.6665 1.70229 50.6674 0.960824C52.6682 0.219363 54.7989 -0.107533 56.93 0H75.79" fill="white"/>
<path d="M104.75 32.87V46.59H127.56V55.68H104.75V78.57H95.58V23.7H132.18V32.87H104.75Z" fill="white"/>
<path d="M187.4 23.7L166.79 52.62V78.57H157.61V52.62L137 23.7H148.21L162.21 43.3L176.16 23.7H187.4Z" fill="white"/>
<path d="M222.77 69.4V78.57H193.3V23.7H202.47V69.4H222.77Z" fill="white"/>
<path d="M289.38 23.7H298.54V78.57H289.38V23.7Z" fill="white"/>
<path d="M337.69 72.22H318.41L316.06 78.57H306.19L328.05 22.13L350 78.57H340.12L337.69 72.22ZM321.39 64.3H334.72L328.05 45.3L321.39 64.3Z" fill="white"/>
<path d="M107.12 11.78H105.66L104.23 8.41H98.46L97 11.78H95.58L100.52 0.14H102.17L107.12 11.78ZM103.72 7.19L101.35 1.51L99 7.19H103.72Z" fill="white"/>
<path d="M121 0.14C121.687 0.137306 122.367 0.273359 123 0.54C123.646 0.795858 124.229 1.18812 124.71 1.69C125.258 2.26147 125.683 2.93809 125.962 3.67892C126.24 4.41974 126.366 5.20937 126.33 6C126.359 6.78623 126.23 7.57027 125.95 8.30553C125.67 9.04078 125.245 9.71224 124.7 10.28C124.215 10.7624 123.637 11.1402 123 11.39C122.365 11.6486 121.686 11.7811 121 11.78H116.09V0.14H121ZM121 10.53C121.57 10.5516 122.138 10.441 122.658 10.2068C123.179 9.97256 123.638 9.62115 124 9.18C124.703 8.27392 125.058 7.14554 125 6C125.035 4.82721 124.64 3.68203 123.89 2.78C123.528 2.33885 123.069 1.98744 122.548 1.75324C122.028 1.51905 121.46 1.40841 120.89 1.43H117.4V10.57L121 10.53Z" fill="white"/>
<path d="M145.05 0.14L140.33 11.78H138.82L134.11 0.14H135.55L139.55 10.29L143.55 0.14H145.05Z" fill="white"/>
<path d="M158.7 9.31323e-10C159.499 -0.0314194 160.296 0.107474 161.037 0.407464C161.779 0.707455 162.448 1.16168 163 1.74C163.542 2.30437 163.965 2.97286 164.241 3.70506C164.518 4.43726 164.644 5.21797 164.61 6C164.633 6.76881 164.503 7.53454 164.226 8.2523C163.95 8.97007 163.533 9.62544 163 10.18C161.858 11.2953 160.326 11.9197 158.73 11.9197C157.134 11.9197 155.602 11.2953 154.46 10.18C153.916 9.63037 153.488 8.97723 153.201 8.25925C152.915 7.54126 152.775 6.77302 152.79 6C152.766 5.2225 152.899 4.44811 153.18 3.72306C153.462 2.99801 153.887 2.33717 154.43 1.78C154.976 1.19932 155.639 0.740576 156.375 0.433828C157.111 0.12708 157.903 -0.0207573 158.7 9.31323e-10ZM158.7 10.64C159.323 10.6637 159.945 10.5557 160.524 10.3231C161.103 10.0905 161.626 9.73847 162.06 9.29C162.883 8.39574 163.325 7.21512 163.29 6C163.335 4.77426 162.893 3.58059 162.06 2.68C161.159 1.80757 159.954 1.31977 158.7 1.31977C157.446 1.31977 156.241 1.80757 155.34 2.68C154.507 3.58059 154.065 4.77426 154.11 6C154.065 7.22881 154.507 8.42576 155.34 9.33C155.777 9.77126 156.302 10.1158 156.881 10.3415C157.46 10.5672 158.079 10.6688 158.7 10.64Z" fill="white"/>
<path d="M179 4.82L184.24 11.82H182.59L178 5.72L175.57 8V11.81H174.25V0.14H175.57V6.21L182.05 0.14H183.91L179 4.82Z" fill="white"/>
<path d="M203.94 11.78H202.48L201.06 8.41H195.29L193.86 11.78H192.4L197.34 0.14H199L203.94 11.78ZM200.54 7.19L198.17 1.51L195.79 7.19H200.54Z" fill="white"/>
<path d="M219.71 1.41H215.65V11.78H214.33V1.41H210.27V0.14H219.71V1.41Z" fill="white"/>
<path d="M230.08 1.41V5.41H236.4V6.74H230.08V11.74H228.76V0.14H237.17V1.41H230.08Z" fill="white"/>
<path d="M247.63 11.78H246.31V0.14H247.63V11.78Z" fill="white"/>
<path d="M259.27 11.78H258V0.14H263.58C264.623 0.0933732 265.644 0.451646 266.43 1.14C266.79 1.47759 267.072 1.8895 267.257 2.34712C267.442 2.80474 267.525 3.2971 267.5 3.79C267.562 4.41831 267.419 5.04978 267.093 5.59035C266.767 6.13093 266.275 6.5517 265.69 6.79C265.37 6.94031 265.035 7.05436 264.69 7.13L267.75 11.82H266.18L263.37 7.36H259.32L259.27 11.78ZM259.27 6.07H263.27C263.763 6.12445 264.262 6.04552 264.714 5.84147C265.166 5.63742 265.555 5.31573 265.84 4.91C266.024 4.56252 266.114 4.17291 266.1 3.78C266.124 3.44707 266.071 3.11308 265.944 2.80424C265.817 2.4954 265.621 2.22012 265.37 2C264.802 1.55269 264.092 1.32543 263.37 1.36H259.27V6.07Z" fill="white"/>
<path d="M288.52 0.14V11.78H287.2V2.15L282.89 7.69L278.51 2.15V11.78H277.19V0.14H278.73L282.89 5.66L287 0.14H288.52Z" fill="white"/>
<path d="M309 11.78H307.54L306.12 8.41H300.35L298.92 11.78H297.46L302.42 0.14H304.07L309 11.78ZM305.61 7.19L303.23 1.51L300.86 7.19H305.61Z" fill="white"/>
<path d="M328 0.14V11.78H326.47L319.29 2V11.83H318V0.14H319.53L326.72 9.94V0.14H328Z" fill="white"/>
<path d="M277.75 47.22V78.65H269.75L269.28 73.47C264.81 77.63 260.18 79.2 253.68 79.2C239 79.2 227.43 68.93 227.43 51C227.43 34.7 239.74 22.78 254.86 22.78C258.462 22.7657 262.031 23.4723 265.356 24.8582C268.681 26.2442 271.694 28.2814 274.22 30.85L267.8 37.28C264.36 33.8637 259.708 31.9475 254.86 31.95C244.75 31.95 236.6 39.01 236.6 50.95C236.6 64.35 244.75 70 254.86 70C257.458 70.0117 260.028 69.4641 262.395 68.3942C264.763 67.3244 266.872 65.7575 268.58 63.8V55.92H259.41V47.22H277.75Z" fill="white"/>
</svg>
